<svg width="12" height="12" fill="none" xmlns="http://www.w3.org/2000/svg"><path d="M9.677 7.5C10.963 7.5 12 8.505 12 9.75S10.963 12 9.677 12c-1.285 0-2.322-1.005-2.322-2.25 0-.18.023-.345.07-.518L4.034 7.508a2.32 2.32 0 01-1.711.742C1.037 8.25 0 7.245 0 6s1.037-2.25 2.323-2.25a2.35 2.35 0 011.71.742l3.392-1.724a1.94 1.94 0 01-.07-.518C7.355 1.005 8.392 0 9.677 0 10.963 0 12 1.005 12 2.25S10.963 4.5 9.677 4.5a2.35 2.35 0 01-1.71-.743L4.574 5.482a1.94 1.94 0 010 1.035l3.391 1.725A2.32 2.32 0 019.677 7.5z" fill="#FDFDFD"/></svg>